<svg enable-background="new 0 0 1500 1500" viewBox="0 0 1500 1500" xmlns="http://www.w3.org/2000/svg"><g fill="#131d10"><path d="m750.2 137.1c-342.7 0-620.5 277.8-620.5 620.5 0 342.6 277.8 620.5 620.5 620.5s620.5-277.8 620.5-620.5c0-342.8-277.8-620.5-620.5-620.5zm0 1182.8c-310.6 0-562.4-251.8-562.4-562.4s251.8-562.4 562.4-562.4 562.4 251.8 562.4 562.4-251.8 562.4-562.4 562.4z"/><path d="m878 249.8c79.3 50.1 132.1 138.5 132.1 239 0 31.3-5.5 64.7-15.4 93.9-15.9 46.9-49.3 93.1-93.9 130-47.8 39.6-102.3 48.4-159.9 57.7l-2.8.4c-18.7 3-34 6.5-48.1 10.8-48.3 14.9-91.8 46.7-125.8 91.9-31.4 41.7-49.4 96.8-49.4 151.3 0 137.7 109.3 250.3 245.6 256 284.4-5.5 513.1-237.6 513.1-523.3.2-245-168.1-450.6-395.5-507.7zm-116.2 825.1c-28.1 0-51-22.8-51-50.9s22.8-51 51-51 51 22.8 51 51c-.1 28.1-22.9 50.9-51 50.9z"/><path d="m738.6 539.8c28.1 0 51-22.8 51-51 0-28.1-22.8-50.9-51-50.9-28.1 0-51 22.8-51 50.9s22.9 51 51 51z"/></g></svg>